<svg width="206" height="16" viewBox="0 0 206 16" fill="#BDBDBD" xmlns="http://www.w3.org/2000/svg">
<path d="M4.56 3.6C5.632 3.6 6.472 3.856 7.08 4.368C7.688 4.88 7.992 5.584 7.992 6.48C7.992 7.376 7.688 8.08 7.08 8.592C6.472 9.096 5.632 9.348 4.56 9.348H2.304V12H1.416V3.6H4.56ZM4.536 8.568C5.368 8.568 6.004 8.388 6.444 8.028C6.884 7.66 7.104 7.144 7.104 6.48C7.104 5.8 6.884 5.28 6.444 4.92C6.004 4.552 5.368 4.368 4.536 4.368H2.304V8.568H4.536ZM11.7278 5.64C12.5518 5.64 13.1838 5.848 13.6238 6.264C14.0638 6.672 14.2838 7.28 14.2838 8.088V12H13.4678V11.016C13.2758 11.344 12.9918 11.6 12.6158 11.784C12.2478 11.968 11.8078 12.06 11.2958 12.06C10.5918 12.06 10.0318 11.892 9.61575 11.556C9.19975 11.22 8.99175 10.776 8.99175 10.224C8.99175 9.688 9.18375 9.256 9.56775 8.928C9.95975 8.6 10.5798 8.436 11.4277 8.436H13.4318V8.052C13.4318 7.508 13.2798 7.096 12.9758 6.816C12.6718 6.528 12.2278 6.384 11.6438 6.384C11.2438 6.384 10.8598 6.452 10.4918 6.588C10.1238 6.716 9.80775 6.896 9.54375 7.128L9.15975 6.492C9.47975 6.22 9.86375 6.012 10.3118 5.868C10.7598 5.716 11.2318 5.64 11.7278 5.64ZM11.4277 11.388C11.9078 11.388 12.3198 11.28 12.6638 11.064C13.0078 10.84 13.2638 10.52 13.4318 10.104V9.072H11.4518C10.3718 9.072 9.83175 9.448 9.83175 10.2C9.83175 10.568 9.97175 10.86 10.2518 11.076C10.5318 11.284 10.9238 11.388 11.4277 11.388ZM19.4949 8.712C19.9429 8.816 20.2869 8.996 20.5269 9.252C20.7749 9.508 20.8989 9.82 20.8989 10.188C20.8989 10.556 20.7709 10.884 20.5149 11.172C20.2669 11.46 19.9269 11.684 19.4949 11.844C19.0629 11.996 18.5869 12.072 18.0669 12.072C17.6109 12.072 17.1629 12.008 16.7229 11.88C16.2829 11.744 15.8989 11.548 15.5709 11.292L15.8589 10.656C16.1469 10.872 16.4829 11.04 16.8669 11.16C17.2509 11.28 17.6389 11.34 18.0309 11.34C18.6149 11.34 19.0909 11.232 19.4589 11.016C19.8349 10.792 20.0229 10.492 20.0229 10.116C20.0229 9.78 19.8709 9.52 19.5669 9.336C19.2629 9.144 18.8469 9.048 18.3189 9.048H17.2389V8.424H18.2709C18.7429 8.424 19.1229 8.336 19.4109 8.16C19.6989 7.976 19.8429 7.732 19.8429 7.428C19.8429 7.092 19.6789 6.828 19.3509 6.636C19.0309 6.444 18.6109 6.348 18.0909 6.348C17.4109 6.348 16.7389 6.52 16.0749 6.864L15.8349 6.204C16.5869 5.812 17.3669 5.616 18.1749 5.616C18.6549 5.616 19.0869 5.688 19.4709 5.832C19.8629 5.968 20.1669 6.164 20.3829 6.42C20.6069 6.676 20.7189 6.972 20.7189 7.308C20.7189 7.628 20.6069 7.912 20.3829 8.16C20.1669 8.408 19.8709 8.592 19.4949 8.712ZM26.0851 5.64C26.6771 5.64 27.2131 5.776 27.6931 6.048C28.1731 6.312 28.5491 6.688 28.8211 7.176C29.0931 7.664 29.2291 8.22 29.2291 8.844C29.2291 9.476 29.0931 10.036 28.8211 10.524C28.5491 11.012 28.1731 11.392 27.6931 11.664C27.2211 11.928 26.6851 12.06 26.0851 12.06C25.5731 12.06 25.1091 11.956 24.6931 11.748C24.2851 11.532 23.9491 11.22 23.6851 10.812V14.328H22.8331V5.688H23.6491V6.936C23.9051 6.52 24.2411 6.2 24.6571 5.976C25.0811 5.752 25.5571 5.64 26.0851 5.64ZM26.0251 11.304C26.4651 11.304 26.8651 11.204 27.2251 11.004C27.5851 10.796 27.8651 10.504 28.0651 10.128C28.2731 9.752 28.3771 9.324 28.3771 8.844C28.3771 8.364 28.2731 7.94 28.0651 7.572C27.8651 7.196 27.5851 6.904 27.2251 6.696C26.8651 6.488 26.4651 6.384 26.0251 6.384C25.5771 6.384 25.1731 6.488 24.8131 6.696C24.4611 6.904 24.1811 7.196 23.9731 7.572C23.7731 7.94 23.6731 8.364 23.6731 8.844C23.6731 9.324 23.7731 9.752 23.9731 10.128C24.1811 10.504 24.4611 10.796 24.8131 11.004C25.1731 11.204 25.5771 11.304 26.0251 11.304ZM33.1965 5.64C34.0205 5.64 34.6525 5.848 35.0925 6.264C35.5325 6.672 35.7525 7.28 35.7525 8.088V12H34.9365V11.016C34.7445 11.344 34.4605 11.6 34.0845 11.784C33.7165 11.968 33.2765 12.06 32.7645 12.06C32.0605 12.06 31.5005 11.892 31.0845 11.556C30.6685 11.22 30.4605 10.776 30.4605 10.224C30.4605 9.688 30.6525 9.256 31.0365 8.928C31.4285 8.6 32.0485 8.436 32.8965 8.436H34.9005V8.052C34.9005 7.508 34.7485 7.096 34.4445 6.816C34.1405 6.528 33.6965 6.384 33.1125 6.384C32.7125 6.384 32.3285 6.452 31.9605 6.588C31.5925 6.716 31.2765 6.896 31.0125 7.128L30.6285 6.492C30.9485 6.22 31.3325 6.012 31.7805 5.868C32.2285 5.716 32.7005 5.64 33.1965 5.64ZM32.8965 11.388C33.3765 11.388 33.7885 11.28 34.1325 11.064C34.4765 10.84 34.7325 10.52 34.9005 10.104V9.072H32.9205C31.8405 9.072 31.3005 9.448 31.3005 10.2C31.3005 10.568 31.4405 10.86 31.7205 11.076C32.0005 11.284 32.3925 11.388 32.8965 11.388ZM41.0806 5.844C41.6646 5.844 42.1846 5.976 42.6406 6.24C43.1046 6.496 43.4646 6.86 43.7206 7.332C43.9766 7.796 44.1046 8.328 44.1046 8.928C44.1046 9.544 43.9686 10.092 43.6966 10.572C43.4326 11.044 43.0606 11.412 42.5806 11.676C42.1006 11.94 41.5486 12.072 40.9246 12.072C39.8766 12.072 39.0646 11.704 38.4886 10.968C37.9126 10.232 37.6246 9.216 37.6246 7.92C37.6246 6.568 37.8806 5.532 38.3926 4.812C38.9126 4.092 39.7206 3.604 40.8166 3.348L43.6486 2.7L43.7926 3.48L41.1286 4.092C40.2246 4.292 39.5606 4.648 39.1366 5.16C38.7126 5.664 38.4806 6.412 38.4406 7.404C38.6966 6.916 39.0526 6.536 39.5086 6.264C39.9646 5.984 40.4886 5.844 41.0806 5.844ZM40.9486 11.364C41.3886 11.364 41.7806 11.264 42.1246 11.064C42.4766 10.856 42.7486 10.568 42.9406 10.2C43.1406 9.832 43.2406 9.416 43.2406 8.952C43.2406 8.488 43.1446 8.08 42.9526 7.728C42.7606 7.376 42.4886 7.104 42.1366 6.912C41.7926 6.712 41.3966 6.612 40.9486 6.612C40.5006 6.612 40.1006 6.712 39.7486 6.912C39.4046 7.104 39.1326 7.376 38.9326 7.728C38.7406 8.08 38.6446 8.488 38.6446 8.952C38.6446 9.416 38.7406 9.832 38.9326 10.2C39.1326 10.568 39.4086 10.856 39.7606 11.064C40.1126 11.264 40.5086 11.364 40.9486 11.364ZM48.5348 12.06C47.9268 12.06 47.3788 11.924 46.8908 11.652C46.4028 11.372 46.0188 10.988 45.7388 10.5C45.4588 10.012 45.3188 9.46 45.3188 8.844C45.3188 8.228 45.4588 7.676 45.7388 7.188C46.0188 6.7 46.4028 6.32 46.8908 6.048C47.3788 5.776 47.9268 5.64 48.5348 5.64C49.1428 5.64 49.6908 5.776 50.1788 6.048C50.6668 6.32 51.0468 6.7 51.3188 7.188C51.5988 7.676 51.7388 8.228 51.7388 8.844C51.7388 9.46 51.5988 10.012 51.3188 10.5C51.0468 10.988 50.6668 11.372 50.1788 11.652C49.6908 11.924 49.1428 12.06 48.5348 12.06ZM48.5348 11.304C48.9828 11.304 49.3828 11.204 49.7348 11.004C50.0948 10.796 50.3748 10.504 50.5748 10.128C50.7748 9.752 50.8748 9.324 50.8748 8.844C50.8748 8.364 50.7748 7.936 50.5748 7.56C50.3748 7.184 50.0948 6.896 49.7348 6.696C49.3828 6.488 48.9828 6.384 48.5348 6.384C48.0868 6.384 47.6828 6.488 47.3228 6.696C46.9708 6.896 46.6908 7.184 46.4827 7.56C46.2828 7.936 46.1828 8.364 46.1828 8.844C46.1828 9.324 46.2828 9.752 46.4827 10.128C46.6908 10.504 46.9708 10.796 47.3228 11.004C47.6828 11.204 48.0868 11.304 48.5348 11.304ZM57.7653 6.444H55.3773V12H54.5253V6.444H52.1373V5.688H57.7653V6.444ZM61.1692 5.64C61.9932 5.64 62.6252 5.848 63.0652 6.264C63.5052 6.672 63.7252 7.28 63.7252 8.088V12H62.9092V11.016C62.7172 11.344 62.4332 11.6 62.0572 11.784C61.6892 11.968 61.2492 12.06 60.7372 12.06C60.0332 12.06 59.4732 11.892 59.0572 11.556C58.6412 11.22 58.4332 10.776 58.4332 10.224C58.4332 9.688 58.6252 9.256 59.0092 8.928C59.4012 8.6 60.0212 8.436 60.8692 8.436H62.8732V8.052C62.8732 7.508 62.7212 7.096 62.4172 6.816C62.1132 6.528 61.6692 6.384 61.0852 6.384C60.6852 6.384 60.3012 6.452 59.9332 6.588C59.5652 6.716 59.2492 6.896 58.9852 7.128L58.6012 6.492C58.9212 6.22 59.3052 6.012 59.7532 5.868C60.2012 5.716 60.6732 5.64 61.1692 5.64ZM60.8692 11.388C61.3492 11.388 61.7612 11.28 62.1052 11.064C62.4492 10.84 62.7052 10.52 62.8732 10.104V9.072H60.8932C59.8132 9.072 59.2732 9.448 59.2732 10.2C59.2732 10.568 59.4132 10.86 59.6932 11.076C59.9732 11.284 60.3652 11.388 60.8692 11.388ZM65.9933 5.688H66.8453V8.484H70.8173V5.688H71.6693V12H70.8173V9.216H66.8453V12H65.9933V5.688ZM76.6949 12.06C76.0869 12.06 75.5389 11.924 75.0509 11.652C74.5629 11.372 74.1789 10.988 73.8989 10.5C73.6189 10.012 73.4789 9.46 73.4789 8.844C73.4789 8.228 73.6189 7.676 73.8989 7.188C74.1789 6.7 74.5629 6.32 75.0509 6.048C75.5389 5.776 76.0869 5.64 76.6949 5.64C77.3029 5.64 77.8509 5.776 78.3389 6.048C78.8269 6.32 79.2069 6.7 79.4789 7.188C79.7589 7.676 79.8989 8.228 79.8989 8.844C79.8989 9.46 79.7589 10.012 79.4789 10.5C79.2069 10.988 78.8269 11.372 78.3389 11.652C77.8509 11.924 77.3029 12.06 76.6949 12.06ZM76.6949 11.304C77.1429 11.304 77.5429 11.204 77.8949 11.004C78.2549 10.796 78.5349 10.504 78.7349 10.128C78.9349 9.752 79.0349 9.324 79.0349 8.844C79.0349 8.364 78.9349 7.936 78.7349 7.56C78.5349 7.184 78.2549 6.896 77.8949 6.696C77.5429 6.488 77.1429 6.384 76.6949 6.384C76.2469 6.384 75.8429 6.488 75.4829 6.696C75.1309 6.896 74.8509 7.184 74.6429 7.56C74.4429 7.936 74.3429 8.364 74.3429 8.844C74.3429 9.324 74.4429 9.752 74.6429 10.128C74.8509 10.504 75.1309 10.796 75.4829 11.004C75.8429 11.204 76.2469 11.304 76.6949 11.304ZM88.8804 8.736C89.7364 8.936 90.1644 9.452 90.1644 10.284C90.1644 10.836 89.9604 11.26 89.5524 11.556C89.1444 11.852 88.5364 12 87.7284 12H84.8604V5.688H87.6444C88.3644 5.688 88.9284 5.828 89.3364 6.108C89.7444 6.388 89.9484 6.788 89.9484 7.308C89.9484 7.652 89.8524 7.948 89.6604 8.196C89.4764 8.436 89.2164 8.616 88.8804 8.736ZM85.6884 8.496H87.5844C88.0724 8.496 88.4444 8.404 88.7004 8.22C88.9644 8.036 89.0964 7.768 89.0964 7.416C89.0964 7.064 88.9644 6.8 88.7004 6.624C88.4444 6.448 88.0724 6.36 87.5844 6.36H85.6884V8.496ZM87.6924 11.328C88.2364 11.328 88.6444 11.24 88.9164 11.064C89.1884 10.888 89.3244 10.612 89.3244 10.236C89.3244 9.86 89.2004 9.584 88.9524 9.408C88.7044 9.224 88.3124 9.132 87.7764 9.132H85.6884V11.328H87.6924ZM102.478 3.6V12H101.602V8.124H96.3458V12H95.4578V3.6H96.3458V7.344H101.602V3.6H102.478ZM106.852 4.368H103.9V3.6H110.692V4.368H107.74V12H106.852V4.368ZM120.834 3.6V12H119.982V5.28L116.682 10.932H116.262L112.962 5.316V12H112.11V3.6H112.842L116.49 9.828L120.102 3.6H120.834ZM123.571 3.6H124.459V11.232H129.163V12H123.571V3.6ZM139.046 9.756H134.366L133.358 12H132.434L136.274 3.6H137.15L140.99 12H140.054L139.046 9.756ZM138.722 9.036L136.706 4.524L134.69 9.036H138.722ZM144.757 12.06C144.133 12.06 143.573 11.924 143.077 11.652C142.589 11.38 142.205 11 141.925 10.512C141.645 10.016 141.505 9.46 141.505 8.844C141.505 8.228 141.645 7.676 141.925 7.188C142.205 6.7 142.589 6.32 143.077 6.048C143.573 5.776 144.133 5.64 144.757 5.64C145.301 5.64 145.785 5.748 146.209 5.964C146.641 6.172 146.981 6.48 147.229 6.888L146.593 7.32C146.385 7.008 146.121 6.776 145.801 6.624C145.481 6.464 145.133 6.384 144.757 6.384C144.301 6.384 143.889 6.488 143.521 6.696C143.161 6.896 142.877 7.184 142.669 7.56C142.469 7.936 142.369 8.364 142.369 8.844C142.369 9.332 142.469 9.764 142.669 10.14C142.877 10.508 143.161 10.796 143.521 11.004C143.889 11.204 144.301 11.304 144.757 11.304C145.133 11.304 145.481 11.228 145.801 11.076C146.121 10.924 146.385 10.692 146.593 10.38L147.229 10.812C146.981 11.22 146.641 11.532 146.209 11.748C145.777 11.956 145.293 12.06 144.757 12.06ZM151.111 5.64C151.935 5.64 152.567 5.848 153.007 6.264C153.447 6.672 153.667 7.28 153.667 8.088V12H152.851V11.016C152.659 11.344 152.375 11.6 151.999 11.784C151.631 11.968 151.191 12.06 150.679 12.06C149.975 12.06 149.415 11.892 148.999 11.556C148.583 11.22 148.375 10.776 148.375 10.224C148.375 9.688 148.567 9.256 148.951 8.928C149.343 8.6 149.963 8.436 150.811 8.436H152.815V8.052C152.815 7.508 152.663 7.096 152.359 6.816C152.055 6.528 151.611 6.384 151.027 6.384C150.627 6.384 150.243 6.452 149.875 6.588C149.507 6.716 149.191 6.896 148.927 7.128L148.543 6.492C148.863 6.22 149.247 6.012 149.695 5.868C150.143 5.716 150.615 5.64 151.111 5.64ZM150.811 11.388C151.291 11.388 151.703 11.28 152.047 11.064C152.391 10.84 152.647 10.52 152.815 10.104V9.072H150.835C149.755 9.072 149.215 9.448 149.215 10.2C149.215 10.568 149.355 10.86 149.635 11.076C149.915 11.284 150.307 11.388 150.811 11.388ZM161.764 3.096V12H160.948V10.752C160.692 11.176 160.352 11.5 159.928 11.724C159.512 11.948 159.04 12.06 158.512 12.06C157.92 12.06 157.384 11.924 156.904 11.652C156.424 11.38 156.048 11 155.776 10.512C155.504 10.024 155.368 9.468 155.368 8.844C155.368 8.22 155.504 7.664 155.776 7.176C156.048 6.688 156.424 6.312 156.904 6.048C157.384 5.776 157.92 5.64 158.512 5.64C159.024 5.64 159.484 5.748 159.892 5.964C160.308 6.172 160.648 6.48 160.912 6.888V3.096H161.764ZM158.584 11.304C159.024 11.304 159.42 11.204 159.772 11.004C160.132 10.796 160.412 10.504 160.612 10.128C160.82 9.752 160.924 9.324 160.924 8.844C160.924 8.364 160.82 7.936 160.612 7.56C160.412 7.184 160.132 6.896 159.772 6.696C159.42 6.488 159.024 6.384 158.584 6.384C158.136 6.384 157.732 6.488 157.372 6.696C157.02 6.896 156.74 7.184 156.532 7.56C156.332 7.936 156.232 8.364 156.232 8.844C156.232 9.324 156.332 9.752 156.532 10.128C156.74 10.504 157.02 10.796 157.372 11.004C157.732 11.204 158.136 11.304 158.584 11.304ZM169.633 9.108H164.353C164.401 9.764 164.653 10.296 165.109 10.704C165.565 11.104 166.141 11.304 166.837 11.304C167.229 11.304 167.589 11.236 167.917 11.1C168.245 10.956 168.529 10.748 168.769 10.476L169.249 11.028C168.969 11.364 168.617 11.62 168.193 11.796C167.777 11.972 167.317 12.06 166.813 12.06C166.165 12.06 165.589 11.924 165.085 11.652C164.589 11.372 164.201 10.988 163.921 10.5C163.641 10.012 163.501 9.46 163.501 8.844C163.501 8.228 163.633 7.676 163.897 7.188C164.169 6.7 164.537 6.32 165.001 6.048C165.473 5.776 166.001 5.64 166.585 5.64C167.169 5.64 167.693 5.776 168.157 6.048C168.621 6.32 168.985 6.7 169.249 7.188C169.513 7.668 169.645 8.22 169.645 8.844L169.633 9.108ZM166.585 6.372C165.977 6.372 165.465 6.568 165.049 6.96C164.641 7.344 164.409 7.848 164.353 8.472H168.829C168.773 7.848 168.537 7.344 168.121 6.96C167.713 6.568 167.201 6.372 166.585 6.372ZM179.251 5.64C180.043 5.64 180.663 5.868 181.111 6.324C181.567 6.78 181.795 7.452 181.795 8.34V12H180.943V8.424C180.943 7.768 180.783 7.268 180.463 6.924C180.151 6.58 179.707 6.408 179.131 6.408C178.475 6.408 177.959 6.612 177.583 7.02C177.207 7.42 177.019 7.976 177.019 8.688V12H176.167V8.424C176.167 7.768 176.007 7.268 175.687 6.924C175.375 6.58 174.927 6.408 174.343 6.408C173.695 6.408 173.179 6.612 172.795 7.02C172.419 7.42 172.231 7.976 172.231 8.688V12H171.379V5.688H172.195V6.84C172.419 6.456 172.731 6.16 173.131 5.952C173.531 5.744 173.991 5.64 174.511 5.64C175.039 5.64 175.495 5.752 175.879 5.976C176.271 6.2 176.563 6.532 176.755 6.972C176.987 6.556 177.319 6.232 177.751 6C178.191 5.76 178.691 5.64 179.251 5.64ZM189.293 5.688L186.137 12.756C185.881 13.348 185.585 13.768 185.249 14.016C184.913 14.264 184.509 14.388 184.037 14.388C183.733 14.388 183.449 14.34 183.185 14.244C182.921 14.148 182.693 14.004 182.501 13.812L182.897 13.176C183.217 13.496 183.601 13.656 184.049 13.656C184.337 13.656 184.581 13.576 184.781 13.416C184.989 13.256 185.181 12.984 185.357 12.6L185.633 11.988L182.813 5.688H183.701L186.077 11.052L188.453 5.688H189.293Z"/>
<path d="M103.173 3.6V12H102.297V8.124H97.0412V12H96.1532V3.6H97.0412V7.344H102.297V3.6H103.173ZM107.547 4.368H104.595V3.6H111.387V4.368H108.435V12H107.547V4.368ZM121.53 3.6V12H120.678V5.28L117.378 10.932H116.958L113.658 5.316V12H112.806V3.6H113.538L117.186 9.828L120.798 3.6H121.53ZM124.266 3.6H125.154V11.232H129.858V12H124.266V3.6ZM139.741 9.756H135.061L134.053 12H133.129L136.969 3.6H137.845L141.685 12H140.749L139.741 9.756ZM139.417 9.036L137.401 4.524L135.385 9.036H139.417ZM145.452 12.06C144.828 12.06 144.268 11.924 143.772 11.652C143.284 11.38 142.9 11 142.62 10.512C142.34 10.016 142.2 9.46 142.2 8.844C142.2 8.228 142.34 7.676 142.62 7.188C142.9 6.7 143.284 6.32 143.772 6.048C144.268 5.776 144.828 5.64 145.452 5.64C145.996 5.64 146.48 5.748 146.904 5.964C147.336 6.172 147.676 6.48 147.924 6.888L147.288 7.32C147.08 7.008 146.816 6.776 146.496 6.624C146.176 6.464 145.828 6.384 145.452 6.384C144.996 6.384 144.584 6.488 144.216 6.696C143.856 6.896 143.572 7.184 143.364 7.56C143.164 7.936 143.064 8.364 143.064 8.844C143.064 9.332 143.164 9.764 143.364 10.14C143.572 10.508 143.856 10.796 144.216 11.004C144.584 11.204 144.996 11.304 145.452 11.304C145.828 11.304 146.176 11.228 146.496 11.076C146.816 10.924 147.08 10.692 147.288 10.38L147.924 10.812C147.676 11.22 147.336 11.532 146.904 11.748C146.472 11.956 145.988 12.06 145.452 12.06ZM151.806 5.64C152.63 5.64 153.262 5.848 153.702 6.264C154.142 6.672 154.362 7.28 154.362 8.088V12H153.546V11.016C153.354 11.344 153.07 11.6 152.694 11.784C152.326 11.968 151.886 12.06 151.374 12.06C150.67 12.06 150.11 11.892 149.694 11.556C149.278 11.22 149.07 10.776 149.07 10.224C149.07 9.688 149.262 9.256 149.646 8.928C150.038 8.6 150.658 8.436 151.506 8.436H153.51V8.052C153.51 7.508 153.358 7.096 153.054 6.816C152.75 6.528 152.306 6.384 151.722 6.384C151.322 6.384 150.938 6.452 150.57 6.588C150.202 6.716 149.886 6.896 149.622 7.128L149.238 6.492C149.558 6.22 149.942 6.012 150.39 5.868C150.838 5.716 151.31 5.64 151.806 5.64ZM151.506 11.388C151.986 11.388 152.398 11.28 152.742 11.064C153.086 10.84 153.342 10.52 153.51 10.104V9.072H151.53C150.45 9.072 149.91 9.448 149.91 10.2C149.91 10.568 150.05 10.86 150.33 11.076C150.61 11.284 151.002 11.388 151.506 11.388ZM162.46 3.096V12H161.644V10.752C161.388 11.176 161.048 11.5 160.624 11.724C160.208 11.948 159.736 12.06 159.208 12.06C158.616 12.06 158.08 11.924 157.6 11.652C157.12 11.38 156.744 11 156.472 10.512C156.2 10.024 156.064 9.468 156.064 8.844C156.064 8.22 156.2 7.664 156.472 7.176C156.744 6.688 157.12 6.312 157.6 6.048C158.08 5.776 158.616 5.64 159.208 5.64C159.72 5.64 160.18 5.748 160.588 5.964C161.004 6.172 161.344 6.48 161.608 6.888V3.096H162.46ZM159.28 11.304C159.72 11.304 160.116 11.204 160.468 11.004C160.828 10.796 161.108 10.504 161.308 10.128C161.516 9.752 161.62 9.324 161.62 8.844C161.62 8.364 161.516 7.936 161.308 7.56C161.108 7.184 160.828 6.896 160.468 6.696C160.116 6.488 159.72 6.384 159.28 6.384C158.832 6.384 158.428 6.488 158.068 6.696C157.716 6.896 157.436 7.184 157.228 7.56C157.028 7.936 156.928 8.364 156.928 8.844C156.928 9.324 157.028 9.752 157.228 10.128C157.436 10.504 157.716 10.796 158.068 11.004C158.428 11.204 158.832 11.304 159.28 11.304ZM170.329 9.108H165.049C165.097 9.764 165.349 10.296 165.805 10.704C166.261 11.104 166.837 11.304 167.533 11.304C167.925 11.304 168.285 11.236 168.613 11.1C168.941 10.956 169.225 10.748 169.465 10.476L169.945 11.028C169.665 11.364 169.313 11.62 168.889 11.796C168.473 11.972 168.013 12.06 167.509 12.06C166.861 12.06 166.285 11.924 165.781 11.652C165.285 11.372 164.897 10.988 164.617 10.5C164.337 10.012 164.197 9.46 164.197 8.844C164.197 8.228 164.329 7.676 164.593 7.188C164.865 6.7 165.233 6.32 165.697 6.048C166.169 5.776 166.697 5.64 167.281 5.64C167.865 5.64 168.389 5.776 168.853 6.048C169.317 6.32 169.681 6.7 169.945 7.188C170.209 7.668 170.341 8.22 170.341 8.844L170.329 9.108ZM167.281 6.372C166.673 6.372 166.161 6.568 165.745 6.96C165.337 7.344 165.105 7.848 165.049 8.472H169.525C169.469 7.848 169.233 7.344 168.817 6.96C168.409 6.568 167.897 6.372 167.281 6.372ZM179.947 5.64C180.739 5.64 181.359 5.868 181.807 6.324C182.263 6.78 182.491 7.452 182.491 8.34V12H181.639V8.424C181.639 7.768 181.479 7.268 181.159 6.924C180.847 6.58 180.403 6.408 179.827 6.408C179.171 6.408 178.655 6.612 178.279 7.02C177.903 7.42 177.715 7.976 177.715 8.688V12H176.863V8.424C176.863 7.768 176.703 7.268 176.383 6.924C176.071 6.58 175.623 6.408 175.039 6.408C174.391 6.408 173.875 6.612 173.491 7.02C173.115 7.42 172.927 7.976 172.927 8.688V12H172.075V5.688H172.891V6.84C173.115 6.456 173.427 6.16 173.827 5.952C174.227 5.744 174.687 5.64 175.207 5.64C175.735 5.64 176.191 5.752 176.575 5.976C176.967 6.2 177.259 6.532 177.451 6.972C177.683 6.556 178.015 6.232 178.447 6C178.887 5.76 179.387 5.64 179.947 5.64ZM189.988 5.688L186.832 12.756C186.576 13.348 186.28 13.768 185.944 14.016C185.608 14.264 185.204 14.388 184.732 14.388C184.428 14.388 184.144 14.34 183.88 14.244C183.616 14.148 183.388 14.004 183.196 13.812L183.592 13.176C183.912 13.496 184.296 13.656 184.744 13.656C185.032 13.656 185.276 13.576 185.476 13.416C185.684 13.256 185.876 12.984 186.052 12.6L186.328 11.988L183.508 5.688H184.396L186.772 11.052L189.148 5.688H189.988Z"/>
<path d="M205.215 5.75392L199.972 2.49957V2.49875L199.971 2.49916L199.971 2.49875V2.49957L194.785 5.75013V1.40658L200 0.830884L205.215 1.40658V5.75392ZM205.211 6.32987L203.126 7.62344L199.985 5.65607L199.979 6.22863L202.664 7.9096L202.201 8.19683L199.985 6.80853L199.979 7.3811L201.729 8.47648L201.316 8.76717L201.306 8.77351L199.985 7.95383L199.979 8.52631L200.847 9.06404L199.963 9.62244L194.796 6.3886L199.971 3.1139V3.11448L205.211 6.32987ZM205.215 11.7713L200 15.0384L194.785 11.7713V7.02542L199.978 10.2796L199.986 10.8693L196.424 8.63702L196.419 9.20959L199.995 11.4728L200.004 12.0782L196.429 9.83883L196.424 10.4113L200 12.6745L203.606 10.4026V7.95712L205.215 6.94552V11.7713ZM200 -3.17891e-07L194 0.662267V12.2411L200 16L206 12.2411V0.662267L200 -3.17891e-07Z"/>
</svg>
