<svg width="189" height="13" viewBox="0 0 189 13" fill="none" xmlns="http://www.w3.org/2000/svg">
<path d="M3.56 1.6C4.632 1.6 5.472 1.856 6.08 2.368C6.688 2.88 6.992 3.584 6.992 4.48C6.992 5.376 6.688 6.08 6.08 6.592C5.472 7.096 4.632 7.348 3.56 7.348H1.304V10H0.416V1.6H3.56ZM3.536 6.568C4.368 6.568 5.004 6.388 5.444 6.028C5.884 5.66 6.104 5.144 6.104 4.48C6.104 3.8 5.884 3.28 5.444 2.92C5.004 2.552 4.368 2.368 3.536 2.368H1.304V6.568H3.536ZM10.7278 3.64C11.5518 3.64 12.1838 3.848 12.6238 4.264C13.0638 4.672 13.2838 5.28 13.2838 6.088V10H12.4678V9.016C12.2758 9.344 11.9918 9.6 11.6158 9.784C11.2478 9.968 10.8078 10.06 10.2958 10.06C9.59175 10.06 9.03175 9.892 8.61575 9.556C8.19975 9.22 7.99175 8.776 7.99175 8.224C7.99175 7.688 8.18375 7.256 8.56775 6.928C8.95975 6.6 9.57975 6.436 10.4277 6.436H12.4318V6.052C12.4318 5.508 12.2798 5.096 11.9758 4.816C11.6718 4.528 11.2278 4.384 10.6438 4.384C10.2438 4.384 9.85975 4.452 9.49175 4.588C9.12375 4.716 8.80775 4.896 8.54375 5.128L8.15975 4.492C8.47975 4.22 8.86375 4.012 9.31175 3.868C9.75975 3.716 10.2318 3.64 10.7278 3.64ZM10.4277 9.388C10.9078 9.388 11.3198 9.28 11.6638 9.064C12.0078 8.84 12.2638 8.52 12.4318 8.104V7.072H10.4518C9.37175 7.072 8.83175 7.448 8.83175 8.2C8.83175 8.568 8.97175 8.86 9.25175 9.076C9.53175 9.284 9.92375 9.388 10.4277 9.388ZM18.4949 6.712C18.9429 6.816 19.2869 6.996 19.5269 7.252C19.7749 7.508 19.8989 7.82 19.8989 8.188C19.8989 8.556 19.7709 8.884 19.5149 9.172C19.2669 9.46 18.9269 9.684 18.4949 9.844C18.0629 9.996 17.5869 10.072 17.0669 10.072C16.6109 10.072 16.1629 10.008 15.7229 9.88C15.2829 9.744 14.8989 9.548 14.5709 9.292L14.8589 8.656C15.1469 8.872 15.4829 9.04 15.8669 9.16C16.2509 9.28 16.6389 9.34 17.0309 9.34C17.6149 9.34 18.0909 9.232 18.4589 9.016C18.8349 8.792 19.0229 8.492 19.0229 8.116C19.0229 7.78 18.8709 7.52 18.5669 7.336C18.2629 7.144 17.8469 7.048 17.3189 7.048H16.2389V6.424H17.2709C17.7429 6.424 18.1229 6.336 18.4109 6.16C18.6989 5.976 18.8429 5.732 18.8429 5.428C18.8429 5.092 18.6789 4.828 18.3509 4.636C18.0309 4.444 17.6109 4.348 17.0909 4.348C16.4109 4.348 15.7389 4.52 15.0749 4.864L14.8349 4.204C15.5869 3.812 16.3669 3.616 17.1749 3.616C17.6549 3.616 18.0869 3.688 18.4709 3.832C18.8629 3.968 19.1669 4.164 19.3829 4.42C19.6069 4.676 19.7189 4.972 19.7189 5.308C19.7189 5.628 19.6069 5.912 19.3829 6.16C19.1669 6.408 18.8709 6.592 18.4949 6.712ZM25.0851 3.64C25.6771 3.64 26.2131 3.776 26.6931 4.048C27.1731 4.312 27.5491 4.688 27.8211 5.176C28.0931 5.664 28.2291 6.22 28.2291 6.844C28.2291 7.476 28.0931 8.036 27.8211 8.524C27.5491 9.012 27.1731 9.392 26.6931 9.664C26.2211 9.928 25.6851 10.06 25.0851 10.06C24.5731 10.06 24.1091 9.956 23.6931 9.748C23.2851 9.532 22.9491 9.22 22.6851 8.812V12.328H21.8331V3.688H22.6491V4.936C22.9051 4.52 23.2411 4.2 23.6571 3.976C24.0811 3.752 24.5571 3.64 25.0851 3.64ZM25.0251 9.304C25.4651 9.304 25.8651 9.204 26.2251 9.004C26.5851 8.796 26.8651 8.504 27.0651 8.128C27.2731 7.752 27.3771 7.324 27.3771 6.844C27.3771 6.364 27.2731 5.94 27.0651 5.572C26.8651 5.196 26.5851 4.904 26.2251 4.696C25.8651 4.488 25.4651 4.384 25.0251 4.384C24.5771 4.384 24.1731 4.488 23.8131 4.696C23.4611 4.904 23.1811 5.196 22.9731 5.572C22.7731 5.94 22.6731 6.364 22.6731 6.844C22.6731 7.324 22.7731 7.752 22.9731 8.128C23.1811 8.504 23.4611 8.796 23.8131 9.004C24.1731 9.204 24.5771 9.304 25.0251 9.304ZM32.1965 3.64C33.0205 3.64 33.6525 3.848 34.0925 4.264C34.5325 4.672 34.7525 5.28 34.7525 6.088V10H33.9365V9.016C33.7445 9.344 33.4605 9.6 33.0845 9.784C32.7165 9.968 32.2765 10.06 31.7645 10.06C31.0605 10.06 30.5005 9.892 30.0845 9.556C29.6685 9.22 29.4605 8.776 29.4605 8.224C29.4605 7.688 29.6525 7.256 30.0365 6.928C30.4285 6.6 31.0485 6.436 31.8965 6.436H33.9005V6.052C33.9005 5.508 33.7485 5.096 33.4445 4.816C33.1405 4.528 32.6965 4.384 32.1125 4.384C31.7125 4.384 31.3285 4.452 30.9605 4.588C30.5925 4.716 30.2765 4.896 30.0125 5.128L29.6285 4.492C29.9485 4.22 30.3325 4.012 30.7805 3.868C31.2285 3.716 31.7005 3.64 32.1965 3.64ZM31.8965 9.388C32.3765 9.388 32.7885 9.28 33.1325 9.064C33.4765 8.84 33.7325 8.52 33.9005 8.104V7.072H31.9205C30.8405 7.072 30.3005 7.448 30.3005 8.2C30.3005 8.568 30.4405 8.86 30.7205 9.076C31.0005 9.284 31.3925 9.388 31.8965 9.388ZM40.0806 3.844C40.6646 3.844 41.1846 3.976 41.6406 4.24C42.1046 4.496 42.4646 4.86 42.7206 5.332C42.9766 5.796 43.1046 6.328 43.1046 6.928C43.1046 7.544 42.9686 8.092 42.6966 8.572C42.4326 9.044 42.0606 9.412 41.5806 9.676C41.1006 9.94 40.5486 10.072 39.9246 10.072C38.8766 10.072 38.0646 9.704 37.4886 8.968C36.9126 8.232 36.6246 7.216 36.6246 5.92C36.6246 4.568 36.8806 3.532 37.3926 2.812C37.9126 2.092 38.7206 1.604 39.8166 1.348L42.6486 0.7L42.7926 1.48L40.1286 2.092C39.2246 2.292 38.5606 2.648 38.1366 3.16C37.7126 3.664 37.4806 4.412 37.4406 5.404C37.6966 4.916 38.0526 4.536 38.5086 4.264C38.9646 3.984 39.4886 3.844 40.0806 3.844ZM39.9486 9.364C40.3886 9.364 40.7806 9.264 41.1246 9.064C41.4766 8.856 41.7486 8.568 41.9406 8.2C42.1406 7.832 42.2406 7.416 42.2406 6.952C42.2406 6.488 42.1446 6.08 41.9526 5.728C41.7606 5.376 41.4886 5.104 41.1366 4.912C40.7926 4.712 40.3966 4.612 39.9486 4.612C39.5006 4.612 39.1006 4.712 38.7486 4.912C38.4046 5.104 38.1326 5.376 37.9326 5.728C37.7406 6.08 37.6446 6.488 37.6446 6.952C37.6446 7.416 37.7406 7.832 37.9326 8.2C38.1326 8.568 38.4086 8.856 38.7606 9.064C39.1126 9.264 39.5086 9.364 39.9486 9.364ZM47.5348 10.06C46.9268 10.06 46.3788 9.924 45.8908 9.652C45.4028 9.372 45.0188 8.988 44.7388 8.5C44.4588 8.012 44.3188 7.46 44.3188 6.844C44.3188 6.228 44.4588 5.676 44.7388 5.188C45.0188 4.7 45.4028 4.32 45.8908 4.048C46.3788 3.776 46.9268 3.64 47.5348 3.64C48.1428 3.64 48.6908 3.776 49.1788 4.048C49.6668 4.32 50.0468 4.7 50.3188 5.188C50.5988 5.676 50.7388 6.228 50.7388 6.844C50.7388 7.46 50.5988 8.012 50.3188 8.5C50.0468 8.988 49.6668 9.372 49.1788 9.652C48.6908 9.924 48.1428 10.06 47.5348 10.06ZM47.5348 9.304C47.9828 9.304 48.3828 9.204 48.7348 9.004C49.0948 8.796 49.3748 8.504 49.5748 8.128C49.7748 7.752 49.8748 7.324 49.8748 6.844C49.8748 6.364 49.7748 5.936 49.5748 5.56C49.3748 5.184 49.0948 4.896 48.7348 4.696C48.3828 4.488 47.9828 4.384 47.5348 4.384C47.0868 4.384 46.6828 4.488 46.3228 4.696C45.9708 4.896 45.6908 5.184 45.4827 5.56C45.2828 5.936 45.1828 6.364 45.1828 6.844C45.1828 7.324 45.2828 7.752 45.4827 8.128C45.6908 8.504 45.9708 8.796 46.3228 9.004C46.6828 9.204 47.0868 9.304 47.5348 9.304ZM56.7653 4.444H54.3773V10H53.5253V4.444H51.1373V3.688H56.7653V4.444ZM60.1692 3.64C60.9932 3.64 61.6252 3.848 62.0652 4.264C62.5052 4.672 62.7252 5.28 62.7252 6.088V10H61.9092V9.016C61.7172 9.344 61.4332 9.6 61.0572 9.784C60.6892 9.968 60.2492 10.06 59.7372 10.06C59.0332 10.06 58.4732 9.892 58.0572 9.556C57.6412 9.22 57.4332 8.776 57.4332 8.224C57.4332 7.688 57.6252 7.256 58.0092 6.928C58.4012 6.6 59.0212 6.436 59.8692 6.436H61.8732V6.052C61.8732 5.508 61.7212 5.096 61.4172 4.816C61.1132 4.528 60.6692 4.384 60.0852 4.384C59.6852 4.384 59.3012 4.452 58.9332 4.588C58.5652 4.716 58.2492 4.896 57.9852 5.128L57.6012 4.492C57.9212 4.22 58.3052 4.012 58.7532 3.868C59.2012 3.716 59.6732 3.64 60.1692 3.64ZM59.8692 9.388C60.3492 9.388 60.7612 9.28 61.1052 9.064C61.4492 8.84 61.7052 8.52 61.8732 8.104V7.072H59.8932C58.8132 7.072 58.2732 7.448 58.2732 8.2C58.2732 8.568 58.4132 8.86 58.6932 9.076C58.9732 9.284 59.3652 9.388 59.8692 9.388ZM64.9933 3.688H65.8453V6.484H69.8173V3.688H70.6693V10H69.8173V7.216H65.8453V10H64.9933V3.688ZM75.6949 10.06C75.0869 10.06 74.5389 9.924 74.0509 9.652C73.5629 9.372 73.1789 8.988 72.8989 8.5C72.6189 8.012 72.4789 7.46 72.4789 6.844C72.4789 6.228 72.6189 5.676 72.8989 5.188C73.1789 4.7 73.5629 4.32 74.0509 4.048C74.5389 3.776 75.0869 3.64 75.6949 3.64C76.3029 3.64 76.8509 3.776 77.3389 4.048C77.8269 4.32 78.2069 4.7 78.4789 5.188C78.7589 5.676 78.8989 6.228 78.8989 6.844C78.8989 7.46 78.7589 8.012 78.4789 8.5C78.2069 8.988 77.8269 9.372 77.3389 9.652C76.8509 9.924 76.3029 10.06 75.6949 10.06ZM75.6949 9.304C76.1429 9.304 76.5429 9.204 76.8949 9.004C77.2549 8.796 77.5349 8.504 77.7349 8.128C77.9349 7.752 78.0349 7.324 78.0349 6.844C78.0349 6.364 77.9349 5.936 77.7349 5.56C77.5349 5.184 77.2549 4.896 76.8949 4.696C76.5429 4.488 76.1429 4.384 75.6949 4.384C75.2469 4.384 74.8429 4.488 74.4829 4.696C74.1309 4.896 73.8509 5.184 73.6429 5.56C73.4429 5.936 73.3429 6.364 73.3429 6.844C73.3429 7.324 73.4429 7.752 73.6429 8.128C73.8509 8.504 74.1309 8.796 74.4829 9.004C74.8429 9.204 75.2469 9.304 75.6949 9.304ZM87.8804 6.736C88.7364 6.936 89.1644 7.452 89.1644 8.284C89.1644 8.836 88.9604 9.26 88.5524 9.556C88.1444 9.852 87.5364 10 86.7284 10H83.8604V3.688H86.6444C87.3644 3.688 87.9284 3.828 88.3364 4.108C88.7444 4.388 88.9484 4.788 88.9484 5.308C88.9484 5.652 88.8524 5.948 88.6604 6.196C88.4764 6.436 88.2164 6.616 87.8804 6.736ZM84.6884 6.496H86.5844C87.0724 6.496 87.4444 6.404 87.7004 6.22C87.9644 6.036 88.0964 5.768 88.0964 5.416C88.0964 5.064 87.9644 4.8 87.7004 4.624C87.4444 4.448 87.0724 4.36 86.5844 4.36H84.6884V6.496ZM86.6924 9.328C87.2364 9.328 87.6444 9.24 87.9164 9.064C88.1884 8.888 88.3244 8.612 88.3244 8.236C88.3244 7.86 88.2004 7.584 87.9524 7.408C87.7044 7.224 87.3124 7.132 86.7764 7.132H84.6884V9.328H86.6924ZM101.478 1.6V10H100.602V6.124H95.3458V10H94.4578V1.6H95.3458V5.344H100.602V1.6H101.478ZM105.852 2.368H102.9V1.6H109.692V2.368H106.74V10H105.852V2.368ZM119.834 1.6V10H118.982V3.28L115.682 8.932H115.262L111.962 3.316V10H111.11V1.6H111.842L115.49 7.828L119.102 1.6H119.834ZM122.571 1.6H123.459V9.232H128.163V10H122.571V1.6ZM138.046 7.756H133.366L132.358 10H131.434L135.274 1.6H136.15L139.99 10H139.054L138.046 7.756ZM137.722 7.036L135.706 2.524L133.69 7.036H137.722ZM143.757 10.06C143.133 10.06 142.573 9.924 142.077 9.652C141.589 9.38 141.205 9 140.925 8.512C140.645 8.016 140.505 7.46 140.505 6.844C140.505 6.228 140.645 5.676 140.925 5.188C141.205 4.7 141.589 4.32 142.077 4.048C142.573 3.776 143.133 3.64 143.757 3.64C144.301 3.64 144.785 3.748 145.209 3.964C145.641 4.172 145.981 4.48 146.229 4.888L145.593 5.32C145.385 5.008 145.121 4.776 144.801 4.624C144.481 4.464 144.133 4.384 143.757 4.384C143.301 4.384 142.889 4.488 142.521 4.696C142.161 4.896 141.877 5.184 141.669 5.56C141.469 5.936 141.369 6.364 141.369 6.844C141.369 7.332 141.469 7.764 141.669 8.14C141.877 8.508 142.161 8.796 142.521 9.004C142.889 9.204 143.301 9.304 143.757 9.304C144.133 9.304 144.481 9.228 144.801 9.076C145.121 8.924 145.385 8.692 145.593 8.38L146.229 8.812C145.981 9.22 145.641 9.532 145.209 9.748C144.777 9.956 144.293 10.06 143.757 10.06ZM150.111 3.64C150.935 3.64 151.567 3.848 152.007 4.264C152.447 4.672 152.667 5.28 152.667 6.088V10H151.851V9.016C151.659 9.344 151.375 9.6 150.999 9.784C150.631 9.968 150.191 10.06 149.679 10.06C148.975 10.06 148.415 9.892 147.999 9.556C147.583 9.22 147.375 8.776 147.375 8.224C147.375 7.688 147.567 7.256 147.951 6.928C148.343 6.6 148.963 6.436 149.811 6.436H151.815V6.052C151.815 5.508 151.663 5.096 151.359 4.816C151.055 4.528 150.611 4.384 150.027 4.384C149.627 4.384 149.243 4.452 148.875 4.588C148.507 4.716 148.191 4.896 147.927 5.128L147.543 4.492C147.863 4.22 148.247 4.012 148.695 3.868C149.143 3.716 149.615 3.64 150.111 3.64ZM149.811 9.388C150.291 9.388 150.703 9.28 151.047 9.064C151.391 8.84 151.647 8.52 151.815 8.104V7.072H149.835C148.755 7.072 148.215 7.448 148.215 8.2C148.215 8.568 148.355 8.86 148.635 9.076C148.915 9.284 149.307 9.388 149.811 9.388ZM160.764 1.096V10H159.948V8.752C159.692 9.176 159.352 9.5 158.928 9.724C158.512 9.948 158.04 10.06 157.512 10.06C156.92 10.06 156.384 9.924 155.904 9.652C155.424 9.38 155.048 9 154.776 8.512C154.504 8.024 154.368 7.468 154.368 6.844C154.368 6.22 154.504 5.664 154.776 5.176C155.048 4.688 155.424 4.312 155.904 4.048C156.384 3.776 156.92 3.64 157.512 3.64C158.024 3.64 158.484 3.748 158.892 3.964C159.308 4.172 159.648 4.48 159.912 4.888V1.096H160.764ZM157.584 9.304C158.024 9.304 158.42 9.204 158.772 9.004C159.132 8.796 159.412 8.504 159.612 8.128C159.82 7.752 159.924 7.324 159.924 6.844C159.924 6.364 159.82 5.936 159.612 5.56C159.412 5.184 159.132 4.896 158.772 4.696C158.42 4.488 158.024 4.384 157.584 4.384C157.136 4.384 156.732 4.488 156.372 4.696C156.02 4.896 155.74 5.184 155.532 5.56C155.332 5.936 155.232 6.364 155.232 6.844C155.232 7.324 155.332 7.752 155.532 8.128C155.74 8.504 156.02 8.796 156.372 9.004C156.732 9.204 157.136 9.304 157.584 9.304ZM168.633 7.108H163.353C163.401 7.764 163.653 8.296 164.109 8.704C164.565 9.104 165.141 9.304 165.837 9.304C166.229 9.304 166.589 9.236 166.917 9.1C167.245 8.956 167.529 8.748 167.769 8.476L168.249 9.028C167.969 9.364 167.617 9.62 167.193 9.796C166.777 9.972 166.317 10.06 165.813 10.06C165.165 10.06 164.589 9.924 164.085 9.652C163.589 9.372 163.201 8.988 162.921 8.5C162.641 8.012 162.501 7.46 162.501 6.844C162.501 6.228 162.633 5.676 162.897 5.188C163.169 4.7 163.537 4.32 164.001 4.048C164.473 3.776 165.001 3.64 165.585 3.64C166.169 3.64 166.693 3.776 167.157 4.048C167.621 4.32 167.985 4.7 168.249 5.188C168.513 5.668 168.645 6.22 168.645 6.844L168.633 7.108ZM165.585 4.372C164.977 4.372 164.465 4.568 164.049 4.96C163.641 5.344 163.409 5.848 163.353 6.472H167.829C167.773 5.848 167.537 5.344 167.121 4.96C166.713 4.568 166.201 4.372 165.585 4.372ZM178.251 3.64C179.043 3.64 179.663 3.868 180.111 4.324C180.567 4.78 180.795 5.452 180.795 6.34V10H179.943V6.424C179.943 5.768 179.783 5.268 179.463 4.924C179.151 4.58 178.707 4.408 178.131 4.408C177.475 4.408 176.959 4.612 176.583 5.02C176.207 5.42 176.019 5.976 176.019 6.688V10H175.167V6.424C175.167 5.768 175.007 5.268 174.687 4.924C174.375 4.58 173.927 4.408 173.343 4.408C172.695 4.408 172.179 4.612 171.795 5.02C171.419 5.42 171.231 5.976 171.231 6.688V10H170.379V3.688H171.195V4.84C171.419 4.456 171.731 4.16 172.131 3.952C172.531 3.744 172.991 3.64 173.511 3.64C174.039 3.64 174.495 3.752 174.879 3.976C175.271 4.2 175.563 4.532 175.755 4.972C175.987 4.556 176.319 4.232 176.751 4C177.191 3.76 177.691 3.64 178.251 3.64ZM188.293 3.688L185.137 10.756C184.881 11.348 184.585 11.768 184.249 12.016C183.913 12.264 183.509 12.388 183.037 12.388C182.733 12.388 182.449 12.34 182.185 12.244C181.921 12.148 181.693 12.004 181.501 11.812L181.897 11.176C182.217 11.496 182.601 11.656 183.049 11.656C183.337 11.656 183.581 11.576 183.781 11.416C183.989 11.256 184.181 10.984 184.357 10.6L184.633 9.988L181.813 3.688H182.701L185.077 9.052L187.453 3.688H188.293Z" fill="#BDBDBD"/>
</svg>
